<?xml version="1.0" encoding="UTF-8"?><svg id="Layer_1" xmlns="http://www.w3.org/2000/svg" viewBox="0 0 5000 1080"><defs><style>.cls-1{fill:#051026;}.cls-2{fill:#0c70f2;}</style></defs><rect class="cls-1" x="229.75" y="222.04" width="178.67" height="57.08" rx="22.55" ry="22.55"/><rect class="cls-1" x="229.75" y="336.42" width="178.67" height="57.08" rx="22.55" ry="22.55"/><rect class="cls-1" x="229.75" y="450.8" width="178.67" height="57.08" rx="22.55" ry="22.55"/><rect class="cls-1" x="229.75" y="565.18" width="500.37" height="57.08" rx="22.55" ry="22.55"/><rect class="cls-1" x="229.75" y="679.56" width="500.37" height="57.08" rx="22.55" ry="22.55"/><path class="cls-2" d="M480.5,507.95h212.5c32.37,0,48.58-39.22,25.69-62.16l-212.5-212.94c-22.89-22.94-62.03-6.69-62.03,25.75v212.94c0,20.11,16.27,36.41,36.33,36.41Z"/><path class="cls-1" d="M1115.33,225.63h-183.23V742.07h183.23c155.89,0,268.2-116.74,268.2-258.59s-112.3-257.85-268.2-257.85Zm0,441.08h-88.66V300.99h88.66c99.74,0,171.41,82.01,171.41,182.49s-71.67,183.23-171.41,183.23Z"/><path class="cls-1" d="M1752.94,423.63c-30.29-42.85-76.84-63.54-127.08-63.54-114.52,0-183.97,87.92-183.97,193.57s72.41,196.53,183.23,196.53c54.67,0,101.22-23.64,127.82-64.28v56.15h90.88V368.22h-90.88v55.41Zm-109.35,250.46c-67.97,0-110.09-53.2-110.09-119.69s39.16-118.21,107.87-118.21,113.78,49.5,113.78,121.91-49.5,116-111.56,116Z"/><path class="cls-1" d="M2127.51,604.65c3.69,8.13,5.17,22.9,5.17,31.03,0,22.9-14.78,38.42-36.94,38.42-26.6,0-36.2-17.73-36.2-40.64v-195.79h111.56v-69.45h-111.56v-99.74h-70.19l-16.25,99.74h-62.8v69.45h58.37v183.23c0,102.7,61.32,129.29,123.38,129.29,80.53,0,118.21-48.76,118.21-103.44,0-6.65-1.48-28.08-8.13-42.11h-74.62Z"/><path class="cls-1" d="M2556.77,423.63c-30.29-42.85-76.84-63.54-127.08-63.54-114.52,0-183.97,87.92-183.97,193.57s72.41,196.53,183.23,196.53c54.67,0,101.22-23.64,127.82-64.28v56.15h90.88V368.22h-90.88v55.41Zm-109.35,250.46c-67.97,0-110.09-53.2-110.09-119.69s39.16-118.21,107.87-118.21,113.78,49.5,113.78,121.91-49.5,116-111.56,116Z"/><rect class="cls-1" x="2752.54" y="207.89" width="90.88" height="534.17"/><path class="cls-1" d="M3124.91,360.09c-107.87,0-202.44,87.18-202.44,195.05s94.57,195.05,202.44,195.05,203.18-87.18,203.18-195.05-93.83-195.05-203.18-195.05Zm0,312.53c-62.8,0-110.82-51.72-110.82-117.47s48.02-117.47,110.82-117.47,111.56,52.46,111.56,117.47-48.02,117.47-111.56,117.47Z"/><path class="cls-1" d="M3692.32,423.63c-30.29-42.85-76.84-63.54-127.08-63.54-114.52,0-183.97,87.92-183.97,193.57s72.4,196.53,183.23,196.53c52.46,0,101.96-24.38,127.82-63.54v43.59c0,80.53-54.67,110.09-118.95,110.09-45.07,0-92.35-19.21-121.91-45.07-11.82,23.64-23.64,47.29-36.2,70.93,36.94,30.29,87.92,53.2,169.19,53.2,118.21,0,198.75-63.54,198.75-217.95V368.22h-90.88v55.41Zm-109.35,250.46c-67.97,0-110.09-53.2-110.09-119.69s39.16-118.21,107.87-118.21,113.78,49.5,113.78,121.91-49.5,116-111.56,116Z"/><rect class="cls-1" x="3887.37" y="368.22" width="90.88" height="373.85"/><path class="cls-1" d="M3933.17,199.77c-33.99,0-59.11,25.12-59.11,57.63s25.12,56.89,59.11,56.89,60.58-24.38,60.58-56.89-26.6-57.63-60.58-57.63Z"/><path class="cls-1" d="M4272.29,441.36c14.04,0,59.11,2.22,97.53,33.99l42.11-65.02c-57.63-42.11-107.87-50.24-144.07-50.24-132.25,0-210.57,86.44-210.57,197.27s80.53,192.83,210.57,192.83c36.2,0,86.44-8.13,144.07-50.98l-42.11-64.28c-38.42,31.03-83.49,33.99-97.53,33.99-72.41,0-123.38-47.29-123.38-113.78s50.98-113.78,123.38-113.78Z"/><path class="cls-1" d="M4649.83,529.28l-55.41-19.95c-20.69-7.39-39.16-17.73-39.16-38.42,0-25.86,25.12-39.16,48.76-39.16,19.95,0,47.29,8.13,56.89,38.42l73.14-26.6c-24.38-67.23-83.49-83.49-130.77-83.49-77.58,0-136.68,43.59-136.68,113.04,0,33.99,19.21,76.1,93.83,104.18l54.67,20.69c22.9,9.6,40.64,20.69,40.64,39.9,0,29.55-29.55,39.16-56.15,39.16-33.99,0-70.19-16.99-79.79-53.93l-71.67,30.29c21.43,71.67,90.14,96.79,150.72,96.79,77.58,0,146.29-39.9,146.29-113.78,0-32.51-15.52-80.53-95.31-107.13Z"/></svg>